<svg width="24" height="24" viewBox="0 0 48 48" fill="none" xmlns="http://www.w3.org/2000/svg">
<path fill-rule="evenodd" clip-rule="evenodd" d="M31.9639 6.33869L15.964 6.35179C15.4117 6.35224 14.9643 6.80032 14.9648 7.35261L14.9926 41.3526C14.9931 41.9049 15.4412 42.3522 15.9934 42.3518L31.9934 42.3387C32.5457 42.3382 32.9931 41.8901 32.9926 41.3379L32.9648 7.33787C32.9643 6.78558 32.5162 6.33823 31.9639 6.33869ZM15.9623 4.35179C14.3055 4.35315 12.9634 5.69739 12.9648 7.35425L12.9926 41.3542C12.994 43.0111 14.3382 44.3531 15.9951 44.3518L31.9951 44.3387C33.6519 44.3373 34.994 42.9931 34.9926 41.3362L34.9648 7.33623C34.9634 5.67938 33.6192 4.33733 31.9623 4.33869L15.9623 4.35179Z" fill="black"/>
<path fill-rule="evenodd" clip-rule="evenodd" d="M16.964 7.35107C16.4117 7.35152 15.9644 7.7996 15.9648 8.35189L15.9869 35.3519C15.9874 35.9042 16.4355 36.3515 16.9877 36.3511L30.9877 36.3396C31.54 36.3391 31.9874 35.8911 31.9869 35.3388L31.9648 8.33878C31.9644 7.7865 31.5163 7.33915 30.964 7.3396L16.964 7.35107ZM23.1917 27.5395L23.1919 27.5397L23.9816 28.1963L24.7695 27.544L24.7698 27.5437L24.7857 27.5305L24.786 27.5302C26.3652 26.2151 27.6639 25.1337 28.5703 24.1175C29.4781 23.0998 29.9762 22.1648 29.9754 21.147C29.9741 19.4907 28.5526 18.1925 26.7422 18.194C25.718 18.1948 24.733 18.6325 24.091 19.3233L23.974 19.4492L23.8568 19.3235C23.2137 18.6337 22.2279 18.1977 21.2038 18.1985C19.3933 18.2 17.9741 19.5006 17.9754 21.1568C17.9762 22.1747 18.476 23.1088 19.3854 24.1243C20.2966 25.1418 21.6029 26.2237 23.1917 27.5395Z" fill="black"/>
<path fill-rule="evenodd" clip-rule="evenodd" d="M23.9918 41.3453C25.0964 41.3444 25.9911 40.4482 25.9902 39.3436C25.9893 38.2391 25.0931 37.3444 23.9886 37.3453C22.884 37.3462 21.9893 38.2424 21.9902 39.3469C21.9911 40.4515 22.8873 41.3462 23.9918 41.3453Z" fill="black"/>
</svg>
