<svg width="24" height="24" viewBox="0 0 28 40" fill="none" xmlns="http://www.w3.org/2000/svg">
<path fill-rule="evenodd" clip-rule="evenodd" d="M7 3C7 1.34315 8.3431 0 10 0H18C19.6569 0 21 1.34315 21 3H25C26.6569 3 28 4.34315 28 6V37C28 38.6569 26.6569 40 25 40H3C1.3431 40 0 38.6569 0 37V6C0 4.34315 1.3431 3 3 3H7ZM7 5H3C2.4477 5 2 5.44772 2 6V16.9886H7.6326L11.0207 10.9654L13.1377 18.375L15.7284 15.0442H21.2175C21.7698 15.0442 22.2175 15.4919 22.2175 16.0442C22.2175 16.5965 21.7698 17.0442 21.2175 17.0442H16.7066L12.2972 22.7133L10.4143 16.123L8.8023 18.9886H2V37C2 37.5523 2.4477 38 3 38H25C25.5523 38 26 37.5523 26 37V6C26 5.44771 25.5523 5 25 5H21C21 6.6569 19.6569 8 18 8H10C8.3431 8 7 6.6569 7 5ZM10 2C9.4477 2 9 2.44772 9 3V5C9 5.55228 9.4477 6 10 6H18C18.5523 6 19 5.55228 19 5V3C19 2.44772 18.5523 2 18 2H10ZM6 27C6 26.4477 6.4477 26 7 26H21C21.5523 26 22 26.4477 22 27C22 27.5523 21.5523 28 21 28H7C6.4477 28 6 27.5523 6 27ZM6 33C6 32.4477 6.4477 32 7 32H13C13.5523 32 14 32.4477 14 33C14 33.5523 13.5523 34 13 34H7C6.4477 34 6 33.5523 6 33Z" fill="black"/>
</svg>
