<svg width="24" height="24" viewBox="0 0 26 36" fill="none" xmlns="http://www.w3.org/2000/svg">
<path fill-rule="evenodd" clip-rule="evenodd" d="M9 0C7.3431 0 6 1.34315 6 3H3C1.34315 3 0 4.3431 0 6V33C0 34.6569 1.34315 36 3 36H23C24.6569 36 26 34.6569 26 33V6C26 4.3431 24.6569 3 23 3H20C20 1.34315 18.6569 0 17 0H9ZM17 6C17.5523 6 18 5.5523 18 5V3C18 2.44772 17.5523 2 17 2H9C8.4477 2 8 2.44772 8 3V5C8 5.5523 8.4477 6 9 6H17ZM6 5C6 6.6569 7.3431 8 9 8H17C18.6569 8 20 6.6569 20 5H23C23.5523 5 24 5.4477 24 6V33C24 33.5523 23.5523 34 23 34H3C2.44772 34 2 33.5523 2 33V6C2 5.4477 2.44772 5 3 5H6Z" fill="black"/>
</svg>
