<svg id="Capa_1" enable-background="new 0 0 512.044 512.044" height="512" viewBox="0 0 512.044 512.044" width="512" xmlns="http://www.w3.org/2000/svg"><path d="m256.023 0c-95.563 0-173.311 77.746-173.311 173.31 0 84.637 60.988 155.287 141.323 170.339v38.78h-65.867v63.746h65.867v65.869h63.746v-65.869h65.869v-63.746h-65.869v-38.736c80.448-14.96 141.551-85.665 141.551-170.383 0-95.564-77.746-173.31-173.309-173.31zm0 282.874c-60.414 0-109.565-49.15-109.565-109.564s49.151-109.564 109.565-109.564c60.413 0 109.563 49.15 109.563 109.564 0 60.413-49.15 109.564-109.563 109.564z"/></svg>