<svg id="Layer_1" height="512" viewBox="0 0 100 100" width="512" xmlns="http://www.w3.org/2000/svg"><path d="m76.666 63.331c0 11.046-8.957 20.003-19.999 20.003-11.046 0-20-8.957-20-20.003 0-11.044 8.955-20 20-20 11.042 0 19.999 8.956 19.999 20z" fill="#e1f3fc"/><path d="m56.667 36.664c-14.728 0-26.668 11.941-26.668 26.667 0 14.731 11.94 26.671 26.668 26.671 14.727 0 26.667-11.939 26.667-26.671 0-14.726-11.94-26.667-26.667-26.667zm0 46.67c-11.046 0-20-8.957-20-20.003 0-11.044 8.955-20 20-20 11.042 0 19.999 8.956 19.999 20 0 11.046-8.957 20.003-19.999 20.003z" fill="#2cabe1"/><path d="m74.895 55.106-18.228 18.23 2.829 2.828 16.779-16.781c-.3-1.492-.769-2.924-1.38-4.277z" fill="#b4e3f9"/><path d="m43.333 59.998 13.334 13.338 33.333-33.338-4.713-4.713-28.62 28.619-8.621-8.62z" fill="#7cb342"/><path d="m74.893 55.107c.612 1.354 1.082 2.783 1.383 4.275l5.378-5.378c-.5-1.341-1.115-2.619-1.813-3.844z" fill="#0077bd"/><path d="m73.334 29.998c0-1.842 1.49-3.333 3.332-3.333h3.334v-3.333h-3.334c-1.842 0-3.332-1.49-3.332-3.333v-3.333h-3.334v3.333c0 1.843-1.497 3.333-3.333 3.333h-3.333v3.333h3.333c1.836 0 3.327 1.492 3.333 3.333v3.333h3.334z" fill="#ffc00e"/><path d="m23.333 29.998c0-3.681 2.985-6.667 6.666-6.667h3.334v-3.333h-3.334c-3.681 0-6.666-2.983-6.666-6.667v-3.333h-3.333v3.333c0 3.68-2.988 6.667-6.667 6.667h-3.333v3.333h3.333c3.678 0 6.667 2.984 6.667 6.667v3.333h3.333z" fill="#ffc00e"/><g fill="#88d3e1"><path d="m23.333 51.664c0 2.763-2.236 5-5 5-2.753 0-5-2.237-5-5 0-2.759 2.246-5 5-5 2.764 0 5 2.241 5 5z"/><path d="m56.667 16.665c0 1.837-1.498 3.333-3.335 3.333-1.836 0-3.333-1.496-3.333-3.333 0-1.834 1.497-3.334 3.333-3.334 1.837 0 3.335 1.499 3.335 3.334z"/><path d="m39.999 33.331c0 1.837-1.497 3.333-3.333 3.333s-3.333-1.496-3.333-3.333c0-1.834 1.498-3.333 3.333-3.333 1.836 0 3.333 1.499 3.333 3.333z"/><path d="m23.333 73.336c0 1.834-1.498 3.331-3.333 3.331-1.836 0-3.333-1.497-3.333-3.331 0-1.838 1.498-3.334 3.333-3.334s3.333 1.496 3.333 3.334z"/></g><path d="m35.596 35.594c0-1.842 1.494-3.332 3.333-3.332.324 0 .63.06.925.145-.403-1.389-1.671-2.409-3.188-2.409-1.839 0-3.333 1.491-3.333 3.333 0 1.514 1.022 2.784 2.41 3.188-.087-.295-.147-.602-.147-.925z" fill="#00abc0"/><path d="m18.93 75.597c0-1.842 1.494-3.333 3.333-3.333.323 0 .629.062.925.147-.404-1.39-1.671-2.411-3.188-2.409-1.839-.002-3.333 1.49-3.333 3.329 0 1.518 1.022 2.786 2.41 3.189-.087-.295-.147-.601-.147-.923z" fill="#00abc0"/><path d="m52.263 18.928c0-1.842 1.493-3.333 3.333-3.332.323-.001.629.06.925.146-.403-1.39-1.671-2.411-3.188-2.411-1.839 0-3.334 1.493-3.334 3.333 0 1.515 1.022 2.784 2.41 3.188-.087-.294-.146-.602-.146-.924z" fill="#00abc0"/><path d="m16.162 54.494c0-2.755 2.239-5 5-5 .644 0 1.257.127 1.823.349-.73-1.856-2.536-3.179-4.651-3.179-2.76 0-5 2.247-5 5 0 2.122 1.318 3.925 3.176 4.653-.222-.565-.348-1.178-.348-1.823z" fill="#00abc0"/><path d="m60.063 46.727c3.931-.001 7.586 1.147 10.677 3.105l.347-.346c-3.639-3.79-8.749-6.156-14.417-6.156-11.045 0-20.002 8.956-20.002 20 0 6.388 2.999 12.07 7.661 15.733-2.67-3.4-4.267-7.682-4.267-12.336-.001-11.045 8.957-20 20.001-20z" fill="#b4e3f9"/></svg>