<svg id="Layer_1" enable-background="new 0 0 512 512" height="512" viewBox="0 0 512 512" width="512" xmlns="http://www.w3.org/2000/svg"><g><path d="m411.8 503.9c0 4.5-3.6 8.1-8.1 8.1h-294.1c-4.5 0-8.1-3.6-8.1-8.1 0-4.5 3.6-8.1 8.1-8.1h294.1c4.4 0 8.1 3.6 8.1 8.1z" fill="#c6c6c6"/><g><path d="m196 479s-18.2-5.8-22.6 7.3c-1.4 4.1-1.5 4.5-1.5 4.5s18.5 7.4 23.2 5.3c-.4 1.1-.7 2.4-.7 2.4l16.1 5.5s3.9-11.4 6.1-18c-11.8-4.1-20.6-7-20.6-7z"/><path d="m180.1 262.2s79.9-46.1 81.7.8c.8 21.5-8.6 70-19 116.3l59.7 41.8-10.7 17.4-55.6-30.9c-10.2 43.2-19.6 78.4-19.6 78.4l-22.1-7.5 12.2-80.4s-25.2-11.6-26.4-27.7c-1.3-20.7-.2-108.2-.2-108.2z" fill="#113274"/><g fill="#60a4e2"><path d="m206.2 398c-.1.4.2.7.6.8h.1c.3 0 .6-.3.7-.6.3-1.8 9.9-67.9 10-68.6l-1.3-.2c-.2.6-9.9 66.8-10.1 68.6z"/><path d="m242.9 378.7c-.4-.1-.7.2-.8.5-2 8.2-6.7 27.5-6.6 28.6.1.3.3.6.7.6h.1c.4-.1.6-.4.6-.7.1-1.3 3.9-17.5 6.5-28.1.1-.5-.1-.8-.5-.9z"/></g><g><g><path d="m286.7 326.5s29-5.2 36 24.8c7 30.1 11.7 54.3 11.7 54.3l-62.4 12s-10.8-46.5-11.7-56c-1.8-19.5 12.5-33.8 26.4-35.1z" fill="#deecfe"/><path d="m334.5 405.5-12.6-57.4 82.9-20 13.8 57.9z" fill="#113274"/><path d="m404.8 328.1s-7.2-25.6-36.8-21.4l-83 20c29.6-4.2 36.8 21.4 36.8 21.4z" fill="#60a4e2"/></g><path d="m378.8 306.5-4.6-19.4-90.5 20 10 47.2-9.9 1.9-11.1-54.5 108.3-23.8 7.1 31.2c.1 0-5-2.3-9.3-2.6z" fill="#113274"/></g><path d="m291.1 439.6s-9.7 16.4 2 23.7c3.7 2.3 4 2.5 4 2.5s11.4-16.4 10.3-21.5c1 .6 2.2 1.2 2.2 1.2l9-14.4s-10.2-6.3-16.2-10c-6.4 10.6-11.3 18.5-11.3 18.5z"/><path d="m119.8 150.9 22.2 45.8s24.6-57.7 39.9-65c7.5-3.6 29.6-4.2 29.6-4.2l21.6.2s19.7 1.4 28.2 4.4c0-.1 0-.1 0-.1 24.1 8.6 71.7 41.8 74.3 56.9 5 29 6.1 68.1 3.8 92.3 0 0-21.2-5.7-21.2-6.1-5.3-32.8-8.4-59.3-11.3-69.5-1.6-5.8-26.9-16.9-37.1-21.1.3 18.6.1 41.5-.2 67.6l-.5 52.8s-2.4 10.8-40.5 10.4l-7.8-18.6h-.1l-8.1 18.5c-38.1-.4-40.3-11.2-40.3-11.2l6.1-102.2s-21.6 46.5-35.8 44.9c-18-2.1-38.8-92.3-38.8-92.3z" fill="#deecfe"/><path d="m233.2 127.6-21.7-.2-4.3.2s1.1 35.4 14.5 63.6c14-27.9 15.7-63.3 15.7-63.3z" fill="#60a4e2"/><path d="m229.9 142.4c-1.3-7.2-7.4-8.7-7.6-8.8-.2.1-6.3 1.4-7.8 8.6 2.4 3.5 4.9 3.6 4.9 3.6l-2.9 32.3s4.6 11.4 5.3 13.1c.7-1.6 5.5-13 5.5-13l-2.3-32.4c-.1 0 2.4-.1 4.9-3.4z" fill="#113274"/><path d="" fill="#146199"/><path d="m222.2 135.9c.1 0 .1 0 0 0z" fill="#146199"/><path d="m237.2 140.5c-.2-.3-.6-.4-.9-.2 0 0-2.3 1.4-5.3 3.1-1.8-9-8.2-10.4-8.6-10.4-.1 0-.2 0-.3 0s-2 .4-4 2c-1.7 1.4-3.8 4-4.5 8.7-3.7-2.6-5.6-4.5-5.6-4.5-.3-.3-.7-.3-.9 0-.3.3-.3.7 0 .9.1.1 2.4 2.4 6.8 5.3.1.1.3.1.4.1s.2 0 .3-.1c.2-.1.4-.3.4-.5.7-8.7 6.6-10.4 7.5-10.6.9.3 6.3 2 7.6 10.2.1.2.2.4.4.5s.4.1.6 0c3.4-1.9 6.1-3.5 6.2-3.5 0-.3.1-.7-.1-1z" fill="#deecfe"/><path d="m215.1 287.3c-1.1 0-2.1.9-2.1 2s.9 2.1 2 2.1 2.1-.9 2.1-2c.1-1.2-.8-2.1-2-2.1z" fill="#60a4e2"/><path d="m215.4 258.3c-1.1 0-2.1.9-2.1 2s.9 2.1 2 2.1 2.1-.9 2.1-2c.1-1.1-.8-2.1-2-2.1z" fill="#60a4e2"/><path d="m215.7 233.6c1.1 0 2.1-.9 2.1-2s-.9-2.1-2-2.1-2.1.9-2.1 2c-.1 1.1.8 2.1 2 2.1z" fill="#60a4e2"/><path d="m216 204.6c1.1 0 2.1-.9 2.1-2s-.9-2.1-2-2.1-2.1.9-2.1 2c-.1 1.1.8 2.1 2 2.1z" fill="#60a4e2"/><path d="m338.3 280.8c2.2 3.6 6.3 11.5 5.1 14.5-1.5 3.2-3.9 3-3.9 3s-.3 4.6-6.8 4c-2.8 2.7-4.6 4.8-7.9 3-1.5 3.1-5.2 5.4-6.3 3.4-1.1-1.9-1.4-9.5-.9-18.1-7.1 9.4-11.6 3.9-11.6 3.9s2.1-4.4 6.4-9.9c3.2-4.1 5.1-7.8 6.4-9.3z" fill="#ffc182"/><path d="m249.2 158.9-5.4-29.4-6.3-.5c-2.8 34.4-14.7 60.1-15.7 62.1l-3.5-8.7c-3.8-10.7-9.6-30.2-11.1-53.7l-6.4.4-6 29.3 8.7 2.7-5 4.9 23.2 33.5 23.8-33.1-4.9-5zm-27.3 32.5-.1-.2c.1-.1.2-.2.3-.3z" fill="#fff"/><path d="m255 210.7c-.1.9-.9 1.5-1.7 1.4l-1.3-.1c-.9-.1-1.5-.9-1.4-1.7.1-.9.9-1.5 1.7-1.4l1.3.1c.8.1 1.4.8 1.4 1.7z" fill="#113274"/><path d="m252.9 177.1c.1-.4-.2-.7-.6-.8s-.7.2-.8.6c-.1.3-3.6 23.7-6.2 27.8-.3.5-.7.9-1 1.3-.3-.4-.5-.7-.7-1.1-2.3-4.4-3.6-28-3.7-28.2 0-.4-.3-.6-.7-.6s-.6.3-.6.7c.1 1 1.4 24.2 3.8 28.7.3.5.6 1 .9 1.4-2.7 1.9-5.9 2.1-6 2.1-.4 0-.7.3-.6.7 0 .4.3.6.7.6h.1c.2 0 3.8-.2 6.8-2.4 2.8 2.7 6.6 3.2 6.8 3.2h.1c.3 0 .6-.3.7-.6.1-.4-.2-.7-.6-.7-.1 0-3.5-.5-6-2.8.5-.5.9-1 1.2-1.5 2.7-4.5 6.2-27.5 6.4-28.4z" fill="#60a4e2"/><path d="m233.4 209.5c0 .9.7 1.6 1.6 1.5h1.3c.9 0 1.5-.7 1.5-1.6 0-.9-.7-1.5-1.6-1.5h-1.2c-.9 0-1.6.7-1.6 1.6z" fill="#113274"/><path d="m205.1 204.4c-.4 3.6-3.5 6.2-7.2 5.9-3.6-.4-6.2-3.5-5.9-7.2.4-3.6 3.5-6.2 7.2-5.9 3.5.4 6.2 3.6 5.9 7.2z" fill="#60a4e2"/><path d="m201.8 204.1c-.2 1.8-1.8 3.2-3.6 3s-3.2-1.8-3-3.6 1.8-3.2 3.6-3c1.9.1 3.2 1.8 3 3.6z" fill="#113274"/><path d="m251.4 170.1c-1.1-1.3-2.7-2-4.6-2.3.4-2.2 1-7.2 1-13.1-.1-10.7-2.5-18.9-7-24.6-4.4-5.4-10.7-8.2-18.8-8.2-7-.1-12.6 2.2-16.8 6.7-12.4 13.2-10 43.8-8.3 66.2.3 3.2.5 6.2.7 9.1.1.6.5 1 1.1 1h.1c.6-.1 1-.6 1-1.1-.2-2.9-.4-5.9-.7-9.1-1.7-21.9-3.9-52 7.8-64.5 3.8-4.1 8.8-6.1 15.3-6 7.4.1 13.2 2.6 17.2 7.5 5.3 6.5 6.5 16.2 6.6 23.2.1 6-.7 11.2-1 13.1-1.7.2-3.1.8-4.2 2-2.6 2.8-2.3 7.4-2.2 7.6.1.6.5 1 1.1 1h.1c.6-.1 1-.6 1-1.2-.1-1.1.1-4.2 1.6-6 .9-.9 2-1.4 3.5-1.4 1.9 0 3.3.6 4.2 1.6 1.8 2 1.3 5.5 1.3 5.5-.1.6.3 1.1.9 1.2s1.1-.3 1.2-.9c-.2-.2.3-4.5-2.1-7.3z" fill="#113274"/><path d="m212.6 117.1s-.6 5.1-1.1 10.3c3.1 7 10.8 6.2 10.8 6.2s7.7 1 10.9-6c-.4-5.3-.9-10.3-.9-10.3z" fill="#f9a355"/><path d="m221.6 117.8c-43-.4-38.8-32.4-38.8-32.4s-12 .8-11.9-15.3c.2-16.1 12.1-11.4 12.1-11.4l.2-15.9s-.2-15.4 39.2-15h1.4c39.4.4 38.9 15.8 38.9 15.8l-.2 15.9s12.1-4.5 11.9 11.6-12.1 15.1-12.1 15.1 1.8 32-39.4 31.6z" fill="#ffc182"/><path d="m236.3 70.8c0 2.3 1.8 4.1 4 4.1 2.3 0 4.1-1.8 4.1-4l.1-3.2c0-2.3-1.8-4.1-4-4.1-2.3 0-4.1 1.8-4.1 4z"/><path d="m251 54.7s-6.1-3.1-13.7.8c-2.2 1.2-3.4-1-1.4-2.2 1.1-.7 7.7-3.8 15.6.2.8.5.1 1.5-.5 1.2z"/><path d="m179.2 58.2s2-.1 3.9.6c10.9-8.3 12.7-24 12.7-24s4.3 1.9 27 2.2c22.6.2 27.2-1.6 27.2-1.6s1.5 15.9 12.2 24.4c1.8-.9 3.9-.8 3.9-.8s7.3-22.1-3.8-35.5c0 0-7.3-16.5-39.3-16.8s-31.5-3.4-38.4-6.2c-6.8-2.9-3.3 8 4.6 13.1-19.9-4.9-24.3-.4-9.2 11.4 0 0-16.5 1.8-1.7 8-6 12.5.9 25.2.9 25.2z" fill="#8e453c"/><path d="m203.8 70.5c0 2.3-1.8 4-4.1 4-2.3 0-4-1.8-4-4.1l.1-3.2c0-2.3 1.8-4 4.1-4 2.3 0 4 1.8 4 4.1z"/><path d="m194.9 54.2s6.1-2.9 13.6 1c2.2 1.2 3.4-.9 1.5-2.2-1.1-.7-7.7-3.9-15.6-.1-.8.6-.2 1.5.5 1.3z"/><path d="m262.1 78.8.1-11.3s6.7-2.8 6.7 4c-.1 6-5.1 7.3-6.8 7.3z" fill="#f9a355"/><path d="m183.2 78 .1-11.3s-6.7-2.9-6.7 3.9c0 6.1 5 7.4 6.6 7.4z" fill="#f9a355"/><path d="m233.5 85.9-13.1-.1-13.1-.1s-1.4 15.5 13 15.7c14.2 0 13.2-15.5 13.2-15.5z" fill="#8e453c"/><path d="m207.3 85.6s-.3 3.9 1.9 3.9c6.2.1 16.2.2 22.4.2 2.2 0 1.8-3.9 1.8-3.9z" fill="#fff"/><path d="m226.8 99.9s-2.4 1.4-6.8 1.4c-4.4-.1-6.4-1.5-6.4-1.5s1.7-3.8 6.6-3.8 6.6 3.9 6.6 3.9z" fill="#f95c57"/><g fill="#60a4e2"><path d="m211.2 268.4c-1.2.1-2.6.2-4.1.2-10.9 0-23.9-2.6-24.1-2.7s-.4 0-.5.1c-.2.1-.3.3-.3.5l-1.7 20.1c0 .2.1.4.2.5.2.2 3.5 4 11.3 7.6.1.1.2.1.3.1 8.2-.2 16.9-3.1 17.3-3.3.3-.1.4-.3.5-.6l1.8-21.8c0-.2-.1-.4-.2-.5 0-.2-.2-.2-.5-.2zm-2.3 21.9c-1.8.6-9.4 2.9-16.3 3.1-6.5-3-9.8-6.2-10.5-7.1l1.6-19c2.9.6 14.1 2.6 23.6 2.6 1.2 0 2.4-.1 3.4-.1z"/><path d="m258.9 266.7c-.2-.1-.4-.2-.5-.1-.1 0-12.2 2.2-22.7 2.2-2 0-3.8-.1-5.5-.3-.2 0-.4.1-.5.2-.2.2-.2.3-.2.5l1.4 21.8c0 .3.2.5.4.6.4.2 9.1 3.3 17.3 3.6.1 0 .2 0 .3-.1 7.9-3.5 11.3-7.3 11.5-7.4.1-.2.2-.3.2-.5l-1.3-20.1c-.1-.1-.2-.3-.4-.4zm-10.4 27.2c-7-.3-14.5-2.8-16.3-3.4l-1.3-20.6c1.5.1 3.1.2 4.8.2 9.2 0 19.5-1.6 22.2-2.1l1.2 19c-.7.8-4.1 4-10.6 6.9z"/><path d="m221.6 197.5c-.4 0-.7.3-.7.7l-.9 98.3c0 .4.3.7.7.7.4 0 .7-.3.7-.7l.9-98.3c0-.4-.3-.7-.7-.7z"/><path d="m179.6 149.1c-.4-.1-.7.2-.7.6-2.4 17.9-1.2 51.8-1.2 52.1 0 .4.3.6.7.6.4 0 .7-.3.6-.7 0-.4-1.2-34.1 1.2-51.9 0-.4-.3-.7-.6-.7z"/><path d="m270 183.8c-.1 0-3.2-2-6.3-7.4-5.2-9.1-6.2-20.6-6.1-28.7 0-.4-.3-.7-.7-.7-.4 0-.7.3-.7.7-.2 15.1 3.4 24.4 6.4 29.5 3.3 5.7 6.6 7.7 6.8 7.8.1.1.2.1.4.1s.5-.1.6-.3c0-.5-.1-.8-.4-1z"/></g><path d="m112.1 178.1c.4 2 2.4 3.6 4.4 3.6l62.3.6c2 0 3.2-1.6 2.8-3.5l-17.6-80c-.4-2-2.4-3.6-4.4-3.6l-62.3-.6c-2 0-3.2 1.6-2.8 3.5z" fill="#113274"/><path d="m98.9 127.6s5.5-.8 10.8-1c5.2-.3 9.3 6 10.1 10.5 1.5 8.3 2.2 14.7-14.1 16.9-3.8.5-8.3-1.1-10.9-11-3.2-11.9-.7-13.8 4.1-15.4z" fill="#ffc182"/><path d="m165.3 104.9s11.1 40.2 21.1 67.6c-3.9-.1-6.2-.1-6.2-.1z" fill="#fff"/><path d="m178.5 177.7-18-77.1c0-.1 0-.1-.1-.2 0 0-.9-2 .5-3 .3-.2.4-.6.2-.9s-.6-.4-.9-.2c-1.1.7-1.4 1.8-1.4 2.8-.4-.1-.8-.2-1.2-.2l-59.8-.5c-.4 0-.7.3-.7.7s.3.7.7.7l59.9.6c1 0 1.5.5 1.6.7l18 77c.1.3.4.5.6.5h.2c.3-.1.5-.5.4-.9z" fill="#60a4e2"/><path d="m377.7 357.9-2.4-9.8-14.4 3.6 2.4 9.8-9.8 2.4 3.6 14.4 9.8-2.5 2.4 9.8 14.4-3.6-2.5-9.7 9.8-2.4-3.6-14.4z" fill="#deecfe"/></g></g></svg>