<?xml version="1.0" encoding="UTF-8"?>
<!-- Generator: Adobe Illustrator 26.3.1, SVG Export Plug-In . SVG Version: 6.00 Build 0)  -->
<svg xmlns="http://www.w3.org/2000/svg" xmlns:xlink="http://www.w3.org/1999/xlink" version="1.1" id="Capa_1" x="0px" y="0px" viewBox="0 0 512 512" style="enable-background:new 0 0 512 512;" xml:space="preserve" width="512" height="512">
<g>
	<path style="fill:#FFFFFF;" d="M42.709,509.847C19.159,509.847,0,490.688,0,467.138V70.23C0,46.68,19.159,27.52,42.709,27.52   h163.609c2.796-4.764,6.586-9.064,11.082-12.467c10.822-8.187,23.696-10.627,32.439-11.75c5.941-0.764,12.003-1.151,18.015-1.151   c7.911,0,15.865,0.667,23.642,1.986c12.27,2.078,22.587,5.515,31.541,10.509c6.181,3.447,11.803,7.831,16.548,12.873h129.683   C492.83,27.52,512,46.68,512,70.23v396.909c0,23.55-19.17,42.709-42.733,42.709H42.709z"/>
	<g>
		<g>
			<g>
				<path style="fill:#7BA3FF;" d="M498.063,70.612V467.52c0,15.824-12.966,28.767-28.79,28.767h-25.909l-0.47-0.628l-2.109,0.628      h-32.113L293.97,462.278l-104.813,34.009H69.065l-0.575-1.373l-1.609,1.373H42.714c-15.824,0-28.767-12.943-28.767-28.767      v-75.032l0.862-0.446l-0.862-3.272V277.861l1.309-4.989l-1.309,0.644V70.612c0-15.824,12.943-28.767,28.767-28.767h361.844      l-0.111,1.687l2.551-1.687h62.275C485.097,41.845,498.063,54.788,498.063,70.612z"/>
			</g>
		</g>
		<g>
			<g>
				<path style="fill:#FFE4F4;" d="M154.32,41.845c-1.022,7.598-3.416,15.15-7.18,22.145c-7.993,14.825-21.61,27.303-38.829,35.994      c-7.134,3.625-14.871,6.576-23.097,8.784c-1.929,0.511-3.834,0.976-5.716,1.348c-0.814-3.555-1.836-6.948-3.067-10.131      c-1.44-3.764-3.16-7.273-5.159-10.526c-6.042-9.783-14.453-15.94-23.121-16.893c-5.484-0.627-11.502,1.441-15.708,5.391      c-3.463,3.253-5.252,7.389-5.043,11.618c0.186,3.857,1.952,7.854,5.112,11.572c2.742,3.207,6.158,5.832,10.108,7.831      c9.248,4.74,21.494,6.042,35.204,3.648c0.209,0.999,0.395,2.022,0.558,3.067c0.093,0.534,0.163,1.069,0.256,1.603      c0.721,4.926,1.092,10.154,1.115,15.708c0,8.319-0.767,16.707-2.277,24.956c-1.627,8.853-4.113,17.567-7.412,25.863      c-3.927,9.876-8.97,19.24-14.593,28.279c-3.741,6.018-7.715,11.897-11.758,17.683c-2.556,3.625-5.112,7.203-7.645,10.759      c-5.786,8.11-11.758,16.475-17.195,24.933c-1.743,2.695-3.393,5.391-4.926,8.04v4.345c2.068-3.695,4.322-7.413,6.739-11.2      c5.437-8.435,11.386-16.777,17.149-24.84c2.301-3.207,4.601-6.46,6.901-9.713c4.159-5.925,8.272-11.944,12.13-18.125      c4.299-6.901,8.296-13.965,11.735-21.308c0.325-0.674,0.627-1.348,0.906-2.022c0.929-1.975,1.766-3.997,2.58-6.018      c3.625-9.086,6.274-18.682,7.9-28.419c1.301-7.691,1.952-15.499,1.929-23.214c0-5.53-0.372-10.782-1.092-15.708      c-0.07-0.558-0.139-1.092-0.256-1.603c-0.163-1.185-0.372-2.324-0.604-3.462c1.905-0.372,3.857-0.837,5.809-1.371      c9.806-2.603,18.961-6.297,27.21-10.875c15.871-8.784,28.442-20.843,36.064-34.971c3.927-7.32,6.39-15.197,7.459-23.167H154.32z       M42.621,106.559c-3.276-1.812-6.111-4.066-8.435-6.808c-1.999-2.347-4.415-6.018-4.624-10.294      c-0.162-3.578,1.371-7.11,4.369-9.922c3.323-3.114,7.901-4.903,12.292-4.903c0.558,0,1.139,0.023,1.696,0.093      c7.993,0.883,15.824,6.669,21.494,15.871c1.813,2.905,3.369,6.042,4.694,9.388c1.325,3.3,2.393,6.808,3.253,10.526      C63.65,112.88,51.521,111.486,42.621,106.559z M67.577,465.94c-0.325-1.208-0.697-2.37-1.115-3.509v-0.023      c-0.116-0.441-0.279-0.86-0.441-1.301c-1.069-2.858-2.277-5.647-3.625-8.365c-0.279-0.604-0.581-1.208-0.906-1.812      c-0.558-1.115-1.162-2.207-1.766-3.3c-0.302-0.534-0.604-1.069-0.929-1.603c-1.092-1.882-2.254-3.718-3.462-5.554      c-0.581-0.906-1.185-1.789-1.789-2.672c-6.32-9.155-13.686-17.66-20.913-26.002l-2.068-2.37      c-5.902-6.808-11.595-13.594-16.615-20.658v3.718c4.624,6.251,9.736,12.292,14.965,18.357l2.068,2.37      c7.901,9.109,15.964,18.404,22.563,28.488c0.627,0.906,1.208,1.836,1.789,2.788c0.651,1.022,1.278,2.068,1.882,3.137      c0.325,0.534,0.627,1.069,0.93,1.603c0.302,0.558,0.604,1.115,0.906,1.696c0.325,0.604,0.651,1.208,0.929,1.812      c1.046,2.022,1.998,4.113,2.858,6.227c0.395,0.953,0.79,1.905,1.139,2.881c0.116,0.325,0.232,0.674,0.349,0.999      c3.555,10.131,4.88,22.238,2.556,33.438h2.184c2.045-10.085,1.208-20.867-1.487-30.324V465.94z"/>
			</g>
			<g>
				<path style="fill:#FFE4F4;" d="M476.755,370.669c-0.348-7.413-1.092-14.546-2.207-21.378c-0.116-0.72-0.232-1.441-0.372-2.161      c-1.115-6.46-2.603-12.664-4.438-18.589c-0.233-0.79-0.488-1.557-0.744-2.324c-2.347-7.18-5.205-13.942-8.574-20.263      c-5.252-9.852-12.013-19.054-18.52-27.977c-9.945-13.57-20.239-27.629-25.073-43.848c-4.461-14.965-3.997-31.3,1.278-45.986      c3.276,1.115,6.692,1.836,10.131,2.091c8.481,0.604,16.01-1.696,21.75-6.692c3.276-2.835,5.507-7.064,5.739-10.782      c0.139-2.486-0.604-4.694-2.161-6.367c-1.441-1.557-3.532-2.626-6.204-3.16c-13.152-2.649-25.003,8.83-30.51,22.121      c-5.646-2.3-10.805-5.902-14.732-10.457c-9.759-11.316-14.5-27.675-14.453-49.959c0.023-27.024,5.995-54.258,17.265-78.796      c0.627-1.394,1.324-2.835,2.068-4.299h-2.44c-0.558,1.139-1.092,2.277-1.603,3.393c-11.386,24.817-17.428,52.376-17.474,79.679      c-0.023,22.865,4.88,39.665,14.988,51.4c4.159,4.833,9.62,8.644,15.615,11.061c-5.46,15.15-5.925,31.974-1.348,47.38      c4.949,16.568,15.336,30.789,25.398,44.522c6.483,8.83,13.175,17.985,18.38,27.698c3.486,6.506,6.413,13.524,8.76,20.983      c0.279,0.79,0.511,1.534,0.744,2.347v0.023c1.603,5.368,2.928,10.968,3.95,16.8c0.139,0.72,0.256,1.441,0.372,2.161      c1.138,6.878,1.882,14.035,2.231,21.471c2.091,44.104-10.038,88.463-33.786,125.525h2.579      C466.856,459.085,478.823,414.773,476.755,370.669z M446.919,165.349c2.231,0.441,3.927,1.301,5.042,2.51      c1.162,1.255,1.696,2.881,1.58,4.787c-0.163,3.137-2.138,6.785-4.973,9.248c-5.298,4.601-12.292,6.739-20.193,6.181      c-3.207-0.232-6.413-0.906-9.48-1.952C424.054,173.691,434.952,162.955,446.919,165.349z"/>
			</g>
		</g>
		<g>
			<g>
				<g>
					<g>
						<g>
							<g>
								<g>
									<g>
										<g>
											<g>
												<path style="fill:#FFA3FF;" d="M213.605,97.766c-0.842,10.279-0.296,20.797,0.435,30.66              c0.86,11.612,2.003,23.21,2.521,34.848c0.346,7.435,3.37,14.482,8.491,19.825c5.733,5.991,13.624,9.378,21.904,9.451              l13.086,0.347l-0.003,0.283l-0.275,13.678l-0.096,5.065l-6.437,18.581l17.008,31.642l66.447-40.739l-6.446-54.146              c18.998-2.301,31.809-20.266,23.362-36.361c-5.539-10.541-15.223-8.826-22.323-5.597              c3.202-7.403,4.997-15.539,5.073-24.102c0.302-34.199-27.172-62.162-61.371-62.465              c-17.875-0.158-35.516,7.023-47.24,20.702C218.456,70.271,214.749,83.797,213.605,97.766z"/>
											</g>
										</g>
									</g>
								</g>
							</g>
							<g>
								<g>
									<g>
										<path d="M218.18,103.381c-1.37,1.05-2.593,2.53-2.233,4.033c0.413,1.728,2.668,2.609,4.712,2.994            c3.589,0.675,7.392,0.606,10.985-0.201c1.648-0.37,3.325-0.935,4.444-2.029c3.056-2.988-0.224-7.329-4.083-8.204            C227.52,98.957,221.527,100.815,218.18,103.381z"/>
									</g>
								</g>
								<g>
									<g>
										<path d="M289.18,105.161c1.37,1.05,2.593,2.53,2.233,4.033c-0.413,1.728-2.668,2.609-4.712,2.994            c-3.589,0.675-7.392,0.606-10.985-0.201c-1.648-0.37-3.325-0.935-4.444-2.029c-3.056-2.988,0.224-7.329,4.083-8.204            C279.84,100.737,285.833,102.595,289.18,105.161z"/>
									</g>
								</g>
								<g>
									<g>
										<path d="M250.29,145.744c-0.063,0-0.128-0.007-0.192-0.022c-5.263-1.181-9.392-5.862-9.606-10.888            c-0.092-2.142,0.448-4.194,0.97-6.177l4.166-15.811c0.122-0.464,0.589-0.747,1.065-0.621            c0.465,0.122,0.743,0.6,0.621,1.065l-4.166,15.81c-0.489,1.858-0.995,3.78-0.916,5.658            c0.181,4.265,3.726,8.248,8.246,9.263c0.47,0.105,0.765,0.571,0.659,1.04C251.048,145.468,250.689,145.744,250.29,145.744            z"/>
									</g>
								</g>
								<g>
									<g>
										<path d="M253.312,154.956c-2.189,0-4.373-0.466-6.375-1.384c-0.437-0.2-0.63-0.717-0.429-1.155            c0.201-0.437,0.717-0.631,1.155-0.429c2.731,1.252,5.845,1.56,8.771,0.861c2.923-0.694,5.566-2.371,7.444-4.72            c0.303-0.375,0.852-0.435,1.226-0.136c0.375,0.301,0.437,0.849,0.136,1.225c-2.12,2.65-5.104,4.542-8.402,5.326            C255.679,154.82,254.494,154.956,253.312,154.956z"/>
									</g>
								</g>
							</g>
							<g>
								<g>
									<g>
										<g>
											<g>
												<path d="M259.765,206.858c34.898-3.138,43.873-17.742,43.873-17.742c-20.432,4.474-37.917,4.294-43.598,4.064              L259.765,206.858z"/>
											</g>
										</g>
									</g>
								</g>
							</g>
							<g>
								<g>
									<g>
										<g>
											<g>
												<g>
													<path d="M328.959,156.969c0.043,0,0.087-0.002,0.13-0.009c0.489-0.066,0.832-0.518,0.765-1.005               c-0.893-6.56,0.284-13.415,3.314-19.305c1.801-3.5,4.023-6.193,6.599-8.008c2.984-2.101,6.493-2.994,9.64-2.406               c0.491,0.075,0.95-0.233,1.038-0.719c0.088-0.486-0.233-0.951-0.719-1.041c-3.603-0.657-7.612,0.329-10.988,2.706               c-2.815,1.982-5.224,4.891-7.16,8.651c-3.196,6.212-4.438,13.444-3.495,20.363               C328.144,156.64,328.522,156.965,328.959,156.969z"/>
												</g>
											</g>
										</g>
									</g>
								</g>
							</g>
							<g>
								<g>
									<g>
										<g>
											<g>
												<g>
													<path d="M271.26,125.64c-0.032,3.595,2.857,6.535,6.452,6.567s6.536-2.857,6.567-6.452               c0.032-3.595-2.857-6.535-6.452-6.567C274.232,119.156,271.291,122.044,271.26,125.64z"/>
												</g>
											</g>
										</g>
									</g>
								</g>
								<g>
									<g>
										<g>
											<g>
												<g>
													<path d="M222.786,125.212c-0.032,3.595,2.857,6.536,6.452,6.567c3.595,0.032,6.536-2.857,6.567-6.452               c0.031-3.595-2.857-6.535-6.452-6.567C225.758,118.728,222.817,121.617,222.786,125.212z"/>
												</g>
											</g>
										</g>
									</g>
								</g>
							</g>
						</g>
					</g>
				</g>
			</g>
			<g>
				<g>
					<path d="M307.981,47.889c-6.455,4.519-11.023,11.651-12.428,19.405c-1.404,7.753,0.371,16.035,4.831,22.531       c2.837,4.132,6.667,7.514,9.44,11.69c2.548,3.836,4.146,8.298,4.613,12.879c0.373,3.662,0.043,7.427,1.033,10.972       c1.119,4.01,3.97,7.504,7.673,9.405c1.51-3.896,4.827-6.639,8.558-8.521c3.731-1.882,8.164-2.329,12.195-1.227       c0.916,0.25,1.816,0.579,2.645,1.042c1.579,0.882,4.392,2.407,5.57,3.779c2.247,2.618,3.341,5.15,4.153,8.504       c2.167-15.908,3.475-31.753,3.666-47.807c0.106-8.904-0.448-18.036-3.972-26.213c-3.524-8.177-10.517-15.311-19.276-16.916       c-4.486-8.433-12.089-15.551-20.432-20.204c-8.342-4.653-17.661-7.345-27.079-8.941c-12.389-2.099-25.09-2.354-37.554-0.752       c-9.144,1.175-18.45,3.478-25.801,9.041c-7.351,5.562-12.346,14.993-10.487,24.022c0.969,4.706,4.078,9.248,8.679,10.631       c5.965,1.793,12.725-1.992,18.483,0.383c3.004,1.239,5.112,3.928,7.603,6.014c8.057,6.747,20.569,6.716,29.462,1.117       c3.344-2.106,6.222-4.869,9.428-7.18c3.099-2.234,12.671-5.533,16.258-6.847L307.981,47.889z"/>
				</g>
			</g>
			<g>
				<g>
					<path style="fill:#B2D7FF;" d="M438.344,435.384l-13.849,0.581l-24.515,0.999v0.186l-187.94,59.138h-23.423       c0.163-5.275,0.349-11.154,0.558-17.335c0-0.651,0.023-1.324,0.046-1.975c0.023-0.627,0.023-1.255,0.07-1.882v-0.511       c0.046-0.976,0.069-1.952,0.093-2.951c0.023-0.697,0.047-1.371,0.07-2.068c0-0.302,0-0.581,0.023-0.883       c0-0.325,0-0.651,0.023-0.976c0-0.256,0-0.534,0.023-0.79v-0.07c0.139-5.298,0.302-10.712,0.418-16.057l0.07-1.743       c0.116-5.437,0.255-10.828,0.348-15.964c0.233-10.41,0.372-19.867,0.372-26.978c0-0.349-0.302-0.651-0.86-0.906       c-5.112-2.463-31.254-1.882-31.649-6.227c-2.208-23.771-3.09-47.566,1.162-71.732c2.812-16.219,7.947-32.601,16.521-49.285       c10.922-21.192,56.28-47.148,74.079-56.721c0.116-0.07,0.232-0.139,0.349-0.209c0.418-0.209,0.837-0.441,1.232-0.651       c2.765-1.464,4.647-2.44,5.321-2.788c0.209-0.093,0.302-0.139,0.302-0.139l0.279,0.813l12.78,35.971l65.226-42.965l0.813-0.534       c0,0,0.046,0.023,0.163,0.093c0.604,0.325,2.765,1.464,6.018,3.3c0.697,0.395,1.464,0.837,2.277,1.324c0,0,0-0.023,0.023,0       c0.349,0.186,0.697,0.395,1.046,0.604c17.567,10.085,54.444,32.95,68.386,54.002c17.706,26.769,23.586,152.712,24.097,164.447       C438.321,435.082,438.344,435.384,438.344,435.384z"/>
				</g>
			</g>
			<g>
				<g>
					<g>
						<path style="fill:#5845ED;" d="M79.796,333.734c0,0-11.866-12.459,3.56-18.392s40.343,16.612,40.343,16.612L79.796,333.734z"/>
					</g>
				</g>
				<g>
					<g>
						<polygon points="34.706,327.801 162.855,327.208 238.795,474.342 113.613,474.935       "/>
					</g>
				</g>
			</g>
			<g>
				<g>
					<g>
						<path d="M192.801,329.006l-0.325,20.704v0.023l-0.349,23.678c-0.023,0.023-0.023,0.023,0,0.023l-0.163,10.178v0.023        l-0.767,49.378l-0.256,16.01l-0.023,1.743l-0.232,15.94l-0.023,0.395v0.023l-0.023,1.348v0.046l-0.093,6.065l-0.046,3.253        l-0.023,1.069v1.301l-0.256,16.08h-1.743l0.279-17.869l0.046-2.858v-0.976l0.047-2.881l0.046-3.044l0.023-1.046        c-0.023-0.023,0-0.023,0-0.023v-0.697l0.256-16.08l0.023-1.72l0.256-15.94l0.419-27.954l0.395-24.863l0.163-10.991        l0.256-15.545v-0.023l0.372-24.794c0-0.488,0.395-0.86,0.86-0.86c0.023,0,0.023,0,0.023,0        C192.429,328.123,192.801,328.518,192.801,329.006z"/>
					</g>
				</g>
				<g>
					<g>
						<g>
							<g>
								<path style="fill:#FFA3FF;" d="M433.395,435.779c0,0-0.023,0.209-0.046,0.581c-0.488,5.228-4.671,44.104-24.98,59.928          H212.041c-6.948-1.859-12.385-3.718-14.476-5.344c-5.995-4.647-5.67-8.133-5.159-9.597c0.209-0.511,0.418-0.767,0.418-0.767          c-0.976-0.488-1.743-1.046-2.347-1.673c-0.558-0.604-0.976-1.255-1.255-1.929c-0.186-0.465-0.325-0.929-0.418-1.417          c-0.07-0.325-0.116-0.651-0.116-0.976c-0.093-0.999,0-1.975,0.163-2.881c0.162-0.813,0.372-1.534,0.604-2.138          c0.093-0.349,0.209-0.651,0.302-0.883c0.232-0.534,0.395-0.86,0.395-0.86s-0.232-0.023-0.651-0.116          c-0.163-0.023-0.348-0.07-0.581-0.093c-2.812-0.604-9.667-2.417-11.525-6.622c-2.37-5.344,4.252-10.387,4.252-10.387          s-0.558-0.116-1.51-0.349c-5.74-1.394-25.793-6.599-25.282-10.921c0.325-2.765,17.73-4.81,34.6-6.181          c0.302-0.023,0.604-0.07,0.906-0.07c0.279-0.046,0.558-0.07,0.837-0.07c10.201-0.837,19.984-1.394,25.375-1.72          c1.65-0.116,2.905-0.186,3.625-0.256c7.134-0.604,44.104,23.725,44.104,23.725L298.18,450l17.474-2.463l1.534-0.232          l4.694-0.651l9.062-1.278l3.044-0.441l18.706-2.626l0.488-4.09l0.116-0.86l71.198-1.394L433.395,435.779z"/>
							</g>
						</g>
						<g>
							<g>
								<path d="M189.805,468.693c-1.776,0-9.093-0.376-12.294-6.401c-3.654-6.88,3.311-12.693,3.382-12.751          c0.148-0.122,0.331-0.191,0.522-0.198l23.336-0.791c0.56,0.024,0.883,0.362,0.901,0.842          c0.016,0.481-0.361,0.884-0.842,0.901l-23.027,0.779c-1.058,0.956-5.422,5.337-2.733,10.4          c3.057,5.751,10.986,5.465,11.057,5.471c0.478-0.053,0.887,0.349,0.91,0.83c0.021,0.481-0.349,0.888-0.83,0.91          C190.147,468.689,190.014,468.693,189.805,468.693z"/>
							</g>
						</g>
						<g>
							<g>
								<path d="M192.816,481.443c-0.122,0-0.243-0.026-0.354-0.075c-2.333-1.037-3.88-2.632-4.6-4.739          c-1.47-4.309,1.11-9.17,1.22-9.375c0.139-0.255,0.394-0.425,0.683-0.453l16.909-1.632c0.477-0.053,0.906,0.304,0.951,0.783          c0.046,0.479-0.304,0.905-0.783,0.951l-16.424,1.585c-0.537,1.17-1.913,4.642-0.904,7.585          c0.539,1.576,1.711,2.795,3.484,3.624l18.641-0.294c0.529,0.069,0.877,0.377,0.885,0.858          c0.008,0.481-0.377,0.877-0.858,0.885l-18.837,0.297C192.825,481.443,192.82,481.443,192.816,481.443z"/>
							</g>
						</g>
					</g>
					<g>
						<g>
							<path d="M353.298,438.232c-0.227,0-0.446-0.089-0.609-0.249c-0.168-0.163-0.262-0.388-0.262-0.623v-92.947         c0-0.481,0.39-0.871,0.871-0.871c0.481,0,0.871,0.39,0.871,0.871v92.056l84.145-1.957c0.491-0.004,0.88,0.37,0.892,0.851         c0.011,0.481-0.37,0.88-0.851,0.892l-85.037,1.978C353.312,438.232,353.305,438.232,353.298,438.232z"/>
						</g>
					</g>
				</g>
				<g>
					<g>
						<path d="M266.679,272.311c-0.094,0-0.188-0.015-0.279-0.047c-0.264-0.088-0.469-0.298-0.553-0.564l-16.019-51.023        c-0.144-0.459,0.111-0.949,0.571-1.093c0.455-0.145,0.947,0.111,1.093,0.571l15.661,49.883l77.337-54.487        c0.395-0.276,0.936-0.183,1.214,0.211c0.277,0.393,0.183,0.937-0.211,1.214l-78.313,55.175        C267.032,272.257,266.856,272.311,266.679,272.311z"/>
					</g>
				</g>
			</g>
			<g>
				<g>
					<path d="M346.179,371.389h-61.701c-0.481,0-0.871-0.39-0.871-0.871c0-0.481,0.39-0.871,0.871-0.871h61.701       c0.481,0,0.871,0.39,0.871,0.871C347.05,370.999,346.66,371.389,346.179,371.389z"/>
				</g>
			</g>
			<g>
				<g>
					<g>
						<g>
							<path d="M355.112,331.221c-0.114,0.671-0.737,1.14-1.408,1.026c-0.032,0.017-0.057,0.01-0.082,0.003         c-0.057,0.01-0.107-0.004-0.132-0.011c-0.624-0.181-1-0.751-0.919-1.404c-0.018-0.032-0.01-0.057-0.003-0.082         c0.033-0.207,0.059-0.389,0.117-0.589c0.073-0.439,0.146-0.878,0.22-1.317c3.548-19.867,6.744-40.947,5.055-61.983         c-1.309-16.378-6.288-39.506-22.66-57.334l0.355-2.902c0.321,0.012,0.639,0.131,0.887,0.393         c17.376,18.471,22.651,42.632,24.025,59.625c1.729,21.643-1.604,43.197-5.269,63.464c-0.011,0.132-0.023,0.264-0.059,0.389         C355.2,330.732,355.153,330.989,355.112,331.221z"/>
						</g>
					</g>
				</g>
				<g>
					<g>
						<g>
							<g>
								<g>
									<path style="fill:#7BA3FF;" d="M352.181,460.69c-0.035-0.01-0.069-0.021-0.103-0.035           c-20.042-7.684-34.771-29.103-37.524-54.567c-2.639-24.42,5.42-48.657,21.553-64.834           c5.679-5.695,11.594-9.544,17.582-11.439c0.685-0.22,1.414,0.163,1.631,0.846c0.218,0.684-0.162,1.415-0.846,1.631           c-5.586,1.768-11.145,5.401-16.526,10.796c-15.585,15.627-23.365,39.073-20.809,62.719           c2.649,24.505,16.73,45.082,35.869,52.42c0.671,0.257,1.006,1.009,0.749,1.678           C353.512,460.542,352.823,460.877,352.181,460.69z"/>
								</g>
							</g>
						</g>
						<g>
							<g>
								<g>
									<path style="fill:#7BA3FF;" d="M311.29,454.658c-0.263-0.076-0.504-0.236-0.679-0.473c-0.429-0.577-0.307-1.39,0.269-1.818           c26.853-19.934,45.29-51.656,49.316-84.858c1.96-16.157-0.608-28.5-7.631-36.688c-0.467-0.545-0.405-1.365,0.141-1.833           c0.545-0.466,1.367-0.403,1.833,0.141c7.517,8.765,10.289,21.784,8.239,38.694c-4.112,33.895-22.934,66.281-50.349,86.631           C312.088,454.706,311.666,454.768,311.29,454.658z"/>
								</g>
							</g>
						</g>
					</g>
					<g>
						<g>
							<g>
								<path d="M316.555,454.921c-1.465,5.046-6.743,7.949-11.789,6.484c-5.046-1.465-7.949-6.743-6.484-11.789          c1.465-5.046,6.743-7.949,11.789-6.484C315.116,444.597,318.019,449.875,316.555,454.921z"/>
							</g>
						</g>
					</g>
					<g>
						<g>
							<g>
								<path d="M364.477,462.844c-1.465,5.046-6.743,7.949-11.789,6.484c-5.046-1.465-7.949-6.743-6.484-11.789          c1.465-5.046,6.743-7.949,11.789-6.484C363.039,452.52,365.942,457.798,364.477,462.844z"/>
							</g>
						</g>
					</g>
				</g>
				<g>
					<g>
						<g>
							<g>
								<path d="M210.407,366.174c-0.068,1.821-0.137,3.642-0.205,5.463c-0.02,0.535-0.372,1.002-0.826,1.168          c-0.154,0.063-0.325,0.095-0.514,0.094c-0.107-0.004-0.232-0.04-0.332-0.069c-0.1-0.029-0.193-0.083-0.285-0.137          c-0.395-0.223-0.651-0.649-0.645-1.135c0.051-1.853,0.133-3.724,0.217-5.595c1.001-26.292,3.114-53.993,10.139-80.241          c8.026-30.072,21.982-55.391,40.47-73.385l-0.93,4.603c-16.789,17.458-29.542,41.339-37.029,69.457          C213.474,312.438,211.403,339.989,210.407,366.174z"/>
							</g>
						</g>
					</g>
					<g>
						<g>
							<g>
								<g>
									<path d="M238.314,368.88c-3.85,13.26-17.72,20.889-30.98,17.039c-13.26-3.85-20.889-17.719-17.039-30.98           c3.85-13.26,17.719-20.889,30.98-17.039C234.534,341.75,242.163,355.62,238.314,368.88z"/>
								</g>
							</g>
						</g>
						<g>
							<g>
								<g>
									<path style="fill:#FFE4F4;" d="M219.43,344.295c-0.976-0.279-1.952-0.465-2.928-0.558c-0.395-0.07-0.767-0.116-1.139-0.116           c-1.255-0.07-2.51-0.023-3.741,0.186c-0.906,0.116-1.812,0.325-2.672,0.581c-5.716,1.743-10.457,6.251-12.246,12.408           c-2.812,9.713,2.788,19.891,12.501,22.702c9.713,2.812,19.891-2.765,22.702-12.478           C234.743,357.308,229.143,347.13,219.43,344.295z M229.399,366.278c-2.417,8.365-11.154,13.152-19.472,10.735           c-8.342-2.417-13.152-11.154-10.735-19.496c1.441-4.926,5.089-8.621,9.574-10.294c0.86-0.349,1.766-0.604,2.672-0.767           c2.347-0.441,4.81-0.349,7.25,0.349C227.029,349.222,231.815,357.959,229.399,366.278z"/>
								</g>
							</g>
						</g>
					</g>
				</g>
			</g>
		</g>
		<g>
			<g>
				<path d="M54.443,482.634c-0.494,0-0.896-0.402-0.896-0.896v-59.802c0-0.495,0.402-0.896,0.896-0.896      c0.495,0,0.896,0.402,0.896,0.896v59.802C55.339,482.232,54.938,482.634,54.443,482.634z"/>
			</g>
			<g>
				<path d="M35.45,472.107c-0.226,0-0.451-0.085-0.626-0.255c-0.354-0.345-0.361-0.912-0.015-1.267l36.385-37.299      c0.345-0.351,0.913-0.359,1.268-0.015c0.354,0.345,0.361,0.912,0.015,1.267l-36.385,37.299      C35.916,472.016,35.682,472.107,35.45,472.107z"/>
			</g>
			<g>
				<path d="M84.343,452.732H24.542c-0.495,0-0.896-0.402-0.896-0.896c0-0.494,0.402-0.896,0.896-0.896h59.802      c0.495,0,0.896,0.402,0.896,0.896C85.24,452.331,84.838,452.732,84.343,452.732z"/>
			</g>
			<g>
				<path d="M73.207,470.963c-0.222,0-0.445-0.082-0.618-0.247l-37.758-35.927c-0.359-0.34-0.372-0.908-0.031-1.267      c0.342-0.357,0.908-0.373,1.267-0.031l37.758,35.928c0.359,0.34,0.372,0.908,0.03,1.267      C73.681,470.87,73.444,470.963,73.207,470.963z"/>
			</g>
		</g>
		<g>
			<g>
				<path d="M427.023,145.049c-0.6,0-1.086-0.486-1.086-1.086V71.504c0-0.6,0.486-1.086,1.086-1.086c0.6,0,1.086,0.486,1.086,1.086      v72.459C428.109,144.563,427.624,145.049,427.023,145.049z"/>
			</g>
			<g>
				<path d="M404.01,132.294c-0.273,0-0.547-0.102-0.758-0.309c-0.43-0.419-0.438-1.106-0.019-1.535l44.085-45.194      c0.418-0.431,1.105-0.439,1.535-0.019c0.43,0.419,0.438,1.106,0.019,1.535l-44.085,45.194      C404.575,132.185,404.293,132.294,404.01,132.294z"/>
			</g>
			<g>
				<path d="M463.253,108.819h-72.458c-0.6,0-1.086-0.486-1.086-1.086s0.486-1.086,1.086-1.086h72.458      c0.6,0,1.086,0.486,1.086,1.086S463.853,108.819,463.253,108.819z"/>
			</g>
			<g>
				<path d="M449.76,130.908c-0.269,0-0.538-0.099-0.749-0.3l-45.75-43.531c-0.435-0.413-0.452-1.1-0.037-1.535      c0.413-0.433,1.099-0.453,1.535-0.037l45.75,43.531c0.435,0.413,0.451,1.1,0.037,1.535      C450.333,130.794,450.047,130.908,449.76,130.908z"/>
			</g>
		</g>
		<g>
			<g>
				<path d="M449.173,385.525c-0.6,0-1.086-0.485-1.086-1.086V311.98c0-0.6,0.486-1.086,1.086-1.086c0.6,0,1.086,0.485,1.086,1.086      v72.459C450.259,385.039,449.773,385.525,449.173,385.525z"/>
			</g>
			<g>
				<path d="M426.16,372.771c-0.273,0-0.547-0.102-0.758-0.309c-0.43-0.419-0.438-1.106-0.019-1.535l44.085-45.194      c0.418-0.43,1.106-0.439,1.535-0.019c0.43,0.419,0.438,1.106,0.019,1.535l-44.085,45.194      C426.725,372.662,426.442,372.771,426.16,372.771z"/>
			</g>
			<g>
				<path d="M485.402,349.296h-72.46c-0.6,0-1.086-0.486-1.086-1.086s0.486-1.086,1.086-1.086h72.46c0.6,0,1.086,0.485,1.086,1.086      S486.003,349.296,485.402,349.296z"/>
			</g>
			<g>
				<path d="M471.909,371.384c-0.269,0-0.539-0.099-0.749-0.3l-45.749-43.53c-0.435-0.413-0.451-1.1-0.037-1.535      c0.414-0.431,1.1-0.452,1.535-0.037l45.748,43.53c0.435,0.413,0.452,1.101,0.038,1.535      C472.482,371.271,472.196,371.384,471.909,371.384z"/>
			</g>
		</g>
		<g>
			<g>
				<g>
					<path style="fill:#FFE4F4;" d="M178.318,241.182H50.094c-4.13,0-7.477-3.348-7.477-7.477V99.981h143.179v133.724       C185.795,237.835,182.448,241.182,178.318,241.182z"/>
				</g>
				<g>
					<path d="M186.191,117.303H42.617c-0.446,0-0.808-0.362-0.808-0.808s0.362-0.808,0.808-0.808h143.574       c0.446,0,0.808,0.362,0.808,0.808S186.637,117.303,186.191,117.303z"/>
				</g>
				<g>
					<path d="M156.528,103.237c-2.417,0-4.369,1.952-4.369,4.369c0,2.393,1.952,4.369,4.369,4.369c2.417,0,4.369-1.975,4.369-4.369       C160.897,105.188,158.945,103.237,156.528,103.237z M156.528,110.347c-1.51,0-2.742-1.232-2.742-2.742       c0-1.534,1.232-2.765,2.742-2.765c1.51,0,2.742,1.232,2.742,2.765C159.27,109.115,158.038,110.347,156.528,110.347z"/>
				</g>
				<g>
					<path d="M170.47,103.237c-2.417,0-4.369,1.952-4.369,4.369c0,2.393,1.952,4.369,4.369,4.369c2.417,0,4.369-1.975,4.369-4.369       C174.839,105.188,172.887,103.237,170.47,103.237z M170.47,110.347c-1.51,0-2.742-1.232-2.742-2.742       c0-1.534,1.232-2.765,2.742-2.765c1.51,0,2.742,1.232,2.742,2.765C173.212,109.115,171.98,110.347,170.47,110.347z"/>
				</g>
			</g>
			<g>
				<g>
					<path style="fill:#FFA3FF;" d="M87.95,152.311c-10.9,3.731-19.146,12.724-25.781,22.143c-4.063,5.768-7.77,11.962-9.337,18.841       c-1.567,6.879-0.735,14.589,3.59,20.162c9.39,12.102,28.071,11.152,37.658-0.234c3.447-4.094,5.44-9.235,5.841-14.554       c0.44-5.84-2.331-11.154-2.292-16.931c0.057-8.303,11.426-19.343,4.864-26.983C98.851,150.514,92.764,150.664,87.95,152.311z"/>
				</g>
				<g>
					<path style="fill:#FFA3FF;" d="M136.298,152.311c10.9,3.731,19.146,12.724,25.781,22.143c4.063,5.768,7.77,11.962,9.337,18.841       c1.567,6.879,0.735,14.589-3.59,20.162c-9.39,12.102-28.071,11.152-37.658-0.234c-3.447-4.094-5.44-9.235-5.841-14.554       c-0.44-5.84,2.331-11.154,2.292-16.931c-0.057-8.303-11.426-19.343-4.864-26.983       C125.397,150.514,131.484,150.664,136.298,152.311z"/>
				</g>
				<g>
					<path d="M110.941,152.216c-0.33,0-0.597-0.267-0.597-0.597v-22.38c0-0.33,0.267-0.597,0.597-0.597       c0.33,0,0.597,0.267,0.597,0.597v22.38C111.538,151.949,111.271,152.216,110.941,152.216z"/>
				</g>
				<g>
					<path d="M146.753,199.011c-0.318,0-0.582-0.25-0.597-0.571c-0.225-5.092-0.921-10.868-4.386-15.105       c-2.615-3.195-6.516-5.101-10.289-6.944l-1.444-0.71c-4.128-2.048-9.388-4.963-13.462-9.35       c-4.128-4.445-6.402-9.938-6.237-15.069c0.01-0.329,0.261-0.597,0.616-0.577c0.329,0.01,0.588,0.286,0.577,0.616       c-0.154,4.819,2.003,10,5.919,14.218c3.943,4.246,9.081,7.09,13.117,9.093l1.439,0.707c3.887,1.899,7.907,3.863,10.687,7.262       c3.709,4.533,4.437,10.83,4.656,15.809c0.015,0.329-0.241,0.608-0.571,0.623C146.77,199.011,146.761,199.011,146.753,199.011z"/>
				</g>
				<g>
					<g>
						<path d="M75.005,198.653c-0.008,0-0.017,0-0.026,0c-0.33-0.015-0.585-0.294-0.571-0.623        c0.219-4.979,0.948-11.276,4.656-15.809c2.779-3.397,6.797-5.36,10.684-7.258l1.442-0.708        c4.037-2.005,9.176-4.85,13.117-9.095c3.917-4.217,6.074-9.399,5.919-14.218c-0.01-0.33,0.248-0.606,0.577-0.616        c0.371-0.001,0.605,0.248,0.616,0.577c0.165,5.131-2.109,10.623-6.237,15.069c-4.073,4.386-9.334,7.302-13.462,9.351        l-1.449,0.712c-3.77,1.842-7.67,3.746-10.284,6.94c-3.465,4.237-4.162,10.013-4.386,15.105        C75.587,198.404,75.322,198.653,75.005,198.653z"/>
					</g>
					<g>
						<path d="M87.737,173.085c-3.548,0-7.097-0.647-10.441-1.947c-0.307-0.12-0.459-0.466-0.34-0.774        c0.12-0.306,0.468-0.456,0.774-0.34c6.828,2.656,14.882,2.418,21.546-0.638c0.297-0.141,0.653-0.009,0.791,0.294        c0.138,0.3,0.007,0.653-0.294,0.791C95.982,172.21,91.86,173.085,87.737,173.085z"/>
					</g>
					<g>
						<path d="M87.499,198.441c-0.251,0-0.483-0.159-0.567-0.409c-1.718-5.174-2.392-10.781-1.952-16.216        c0.151-1.853,0.541-4.148,2.242-5.464c0.261-0.201,0.636-0.155,0.837,0.107c0.202,0.261,0.154,0.635-0.107,0.837        c-1.331,1.031-1.651,3.009-1.781,4.618c-0.429,5.275,0.227,10.719,1.895,15.742c0.103,0.313-0.066,0.651-0.379,0.756        C87.625,198.431,87.561,198.441,87.499,198.441z"/>
					</g>
					<g>
						<path d="M66.894,193.607c-0.205,0-0.405-0.106-0.516-0.296c-0.166-0.286-0.069-0.651,0.215-0.817        c4.329-2.517,8.269-5.634,11.713-9.263c0.228-0.239,0.605-0.248,0.844-0.023c0.239,0.227,0.25,0.605,0.023,0.844        c-3.522,3.713-7.552,6.901-11.978,9.474C67.1,193.58,66.996,193.607,66.894,193.607z"/>
					</g>
					<g>
						<path d="M79.189,196.824c-0.157,0-0.313-0.061-0.43-0.183c-1.771-1.842-2.873-4.255-3.102-6.795        c-0.03-0.328,0.212-0.618,0.541-0.648c0.318-0.031,0.62,0.212,0.648,0.541c0.206,2.27,1.191,4.427,2.773,6.074        c0.229,0.238,0.221,0.616-0.016,0.844C79.487,196.77,79.338,196.824,79.189,196.824z"/>
					</g>
				</g>
				<g>
					<path d="M138.104,176.112c-4.158,0-8.32-0.864-12.062-2.582c-0.3-0.137-0.431-0.491-0.293-0.792       c0.135-0.301,0.488-0.432,0.792-0.293c6.659,3.054,14.716,3.295,21.546,0.638c0.31-0.115,0.655,0.034,0.774,0.34       c0.119,0.307-0.033,0.654-0.34,0.774C145.231,175.475,141.669,176.112,138.104,176.112z"/>
				</g>
				<g>
					<path d="M136.769,200.31c-0.062,0-0.126-0.01-0.188-0.031c-0.313-0.104-0.482-0.442-0.379-0.756       c1.669-5.024,2.324-10.468,1.896-15.742c-0.13-1.609-0.45-3.586-1.783-4.618c-0.261-0.202-0.309-0.576-0.107-0.837       c0.201-0.261,0.579-0.31,0.837-0.107c1.702,1.316,2.092,3.611,2.243,5.464c0.44,5.433-0.235,11.04-1.953,16.216       C137.253,200.151,137.02,200.31,136.769,200.31z"/>
				</g>
				<g>
					<path d="M154.755,193.57c-0.102,0-0.205-0.026-0.301-0.08c-4.424-2.573-8.454-5.76-11.978-9.473       c-0.227-0.238-0.217-0.617,0.023-0.844c0.237-0.226,0.616-0.217,0.844,0.023c3.445,3.63,7.387,6.745,11.713,9.262       c0.285,0.166,0.381,0.531,0.215,0.817C155.16,193.465,154.961,193.57,154.755,193.57z"/>
				</g>
				<g>
					<path d="M142.818,198.216c-0.149,0-0.298-0.054-0.414-0.167c-0.237-0.228-0.245-0.606-0.016-0.844       c1.582-1.645,2.567-3.802,2.773-6.074c0.03-0.329,0.335-0.566,0.648-0.541c0.329,0.03,0.571,0.32,0.541,0.648       c-0.229,2.542-1.331,4.955-3.102,6.795C143.131,198.155,142.975,198.216,142.818,198.216z"/>
				</g>
			</g>
		</g>
	</g>
</g>















</svg>
