<svg clip-rule="evenodd" fill-rule="evenodd" height="300" image-rendering="optimizeQuality" shape-rendering="geometricPrecision" text-rendering="geometricPrecision" viewBox="0 0 512 512" width="300" xmlns="http://www.w3.org/2000/svg" xmlns:xodm="http://www.corel.com/coreldraw/odm/2003" version="1.1" xmlns:xlink="http://www.w3.org/1999/xlink" xmlns:svgjs="http://svgjs.dev/svgjs"><g transform="matrix(1,0,0,1,0,0)"><g id="Layer_x0020_1"><g id="_2781609462720"><path d="m256 512c-68.38 0-132.67-26.63-181.02-74.98-48.35-48.35-74.98-112.64-74.98-181.02s26.63-132.67 74.98-181.02c48.35-48.35 112.64-74.98 181.02-74.98s132.67 26.63 181.02 74.98 74.98 112.64 74.98 181.02-26.63 132.67-74.98 181.02-112.64 74.98-181.02 74.98z" fill="#f90965ff" data-original-color="#ed3237ff" stroke="none"/><path d="m256 483.08c-60.65 0-117.68-23.62-160.57-66.51s-66.51-99.91-66.51-160.57c0-60.65 23.62-117.68 66.51-160.57s99.92-66.5 160.57-66.5 117.68 23.62 160.57 66.5c42.89 42.89 66.5 99.92 66.5 160.57 0 60.66-23.61 117.68-66.5 160.57s-99.92 66.51-160.57 66.51z" fill="#fefefeff" data-original-color="#fefefeff" stroke="none"/><path d="m274.02 442.58h-36.04c-2.87 0-5.2-2.33-5.2-5.2v-36.48h-39.12c-2.88 0-5.21-2.33-5.21-5.2v-47.73c0-2.87 2.33-5.2 5.21-5.2h39.12v-47.37c-24.65-5.11-47.09-18.36-63.58-37.63-17.65-20.64-27.38-46.98-27.38-74.17 0-62.96 51.22-114.18 114.18-114.18s114.18 51.22 114.18 114.18c0 27.19-9.72 53.53-27.38 74.17-16.49 19.27-38.93 32.53-63.58 37.63v47.37h39.12c2.88 0 5.21 2.33 5.21 5.2v47.73c0 2.87-2.33 5.2-5.21 5.2h-39.12v36.48c0 2.87-2.33 5.2-5.2 5.2z" fill="#f90965ff" data-original-color="#ed3237ff" stroke="none"/><path d="m256 245.25c-34 0-61.65-27.66-61.65-61.65 0-34 27.65-61.66 61.65-61.66s61.65 27.66 61.65 61.66c0 33.99-27.65 61.65-61.65 61.65z" fill="#fefefeff" data-original-color="#fefefeff" stroke="none"/></g></g></g></svg>