<svg clip-rule="evenodd" fill-rule="evenodd" height="300" image-rendering="optimizeQuality" shape-rendering="geometricPrecision" text-rendering="geometricPrecision" viewBox="0 0 512 512" width="300" xmlns="http://www.w3.org/2000/svg" xmlns:xodm="http://www.corel.com/coreldraw/odm/2003" version="1.1" xmlns:xlink="http://www.w3.org/1999/xlink" xmlns:svgjs="http://svgjs.dev/svgjs"><g transform="matrix(1,0,0,1,0,0)"><g id="Layer_x0020_1"><g id="_2781609462384"><path d="m256 512c-68.38 0-132.67-26.63-181.02-74.98-48.35-48.35-74.98-112.64-74.98-181.02s26.63-132.67 74.98-181.02c48.35-48.35 112.64-74.98 181.02-74.98s132.67 26.63 181.02 74.98 74.98 112.64 74.98 181.02-26.63 132.67-74.98 181.02-112.64 74.98-181.02 74.98z" fill="#f90965ff" data-original-color="#ed3237ff" stroke="none"/><path d="m257.87 482.86c-61.1 0-118.54-23.79-161.74-66.99s-66.99-100.64-66.99-161.73c0-61.1 23.79-118.54 66.99-161.74s100.64-66.99 161.74-66.99c61.09 0 118.53 23.79 161.73 66.99s66.99 100.64 66.99 161.74c0 61.09-23.79 118.53-66.99 161.73s-100.64 66.99-161.73 66.99z" fill="#fefefeff" data-original-color="#fefefeff" stroke="none"/><path d="m230.3 405.47c-33.06 0-64.14-12.88-87.52-36.25-48.25-48.26-48.25-126.78 0-175.04 23.38-23.37 54.46-36.25 87.52-36.25 25.82 0 51.26 8.2 72.12 23.17l43.66-43.66h-36.3c-2.87 0-5.2-2.33-5.2-5.2v-20.51c0-2.87 2.33-5.2 5.2-5.2h90.49c2.87 0 5.2 2.33 5.2 5.2v90.49c0 2.88-2.33 5.2-5.2 5.2h-20.51c-2.87 0-5.2-2.32-5.2-5.2v-36.3l-43.66 43.66c35.13 48.86 29.85 116.71-13.08 159.64-23.38 23.37-54.46 36.25-87.52 36.25z" fill="#f90965ff" data-original-color="#ed3237ff" stroke="none"/><path d="m230.3 374.27c-24.72 0-47.97-9.63-65.45-27.12-17.49-17.48-27.12-40.72-27.12-65.45s9.63-47.97 27.12-65.45c17.48-17.49 40.72-27.12 65.45-27.12s47.97 9.63 65.46 27.12c17.48 17.48 27.11 40.73 27.11 65.45 0 24.73-9.63 47.97-27.12 65.46-17.48 17.48-40.72 27.11-65.45 27.11z" fill="#fefefeff" data-original-color="#fefefeff" stroke="none"/><path d="m230.25 351.28c-18.57 0-35.97-7.21-49.15-20.38-13.53-13.53-20.76-31.52-20.36-50.66.06-2.88 2.44-5.19 5.31-5.1 2.88.06 5.16 2.44 5.1 5.31-.34 16.28 5.81 31.58 17.31 43.09 11.51 11.51 26.83 17.66 43.09 17.31 2.89-.07 5.25 2.22 5.31 5.1.06 2.87-2.22 5.25-5.09 5.31-.51.01-1.01.02-1.52.02zm64.41-63.02c-.04 0-.08 0-.11 0-2.88-.06-5.16-2.44-5.1-5.31.34-16.28-5.8-31.58-17.31-43.09-11.51-11.5-26.81-17.65-43.09-17.31-2.87.09-5.25-2.22-5.31-5.1-.06-2.87 2.22-5.25 5.1-5.31 19.15-.39 37.13 6.83 50.66 20.36s20.76 31.53 20.36 50.67c-.06 2.83-2.38 5.09-5.2 5.09z" fill="#e6e7e8ff" data-original-color="#e6e7e8ff" stroke="none"/></g></g></g></svg>