<svg id="Layer_1" enable-background="new 0 0 512 512" viewBox="0 0 512 512" xmlns="http://www.w3.org/2000/svg"><g><path clip-rule="evenodd" d="m184.78 501.59v-73.22c0-1.93-.45-3.57-1.42-5.24l-73.45-125.74c-8.65-14.77-3.6-33.9 11.14-42.52 14.77-8.62 33.9-3.6 42.52 11.17l49.83 85.32c2.41 4.11 7.11 6.04 11.71 4.79 21.52-5.84 40.25-5.84 61.77 0 4.62 1.25 9.3-.68 11.71-4.79l49.83-85.32c8.62-14.77 27.75-19.79 42.52-11.17 14.77 8.62 19.79 27.75 11.17 42.52l-73.47 125.74c-.96 1.67-1.42 3.32-1.42 5.24v73.22c0 5.73-4.68 10.4-10.4 10.4h-121.64c-5.72.01-10.4-4.67-10.4-10.4z" fill="#0593fc" fill-rule="evenodd"/><path clip-rule="evenodd" d="m256.01 325.17c27.92 0 50.68-22.79 50.68-50.71s-22.76-50.68-50.68-50.68-50.71 22.76-50.71 50.68c0 27.91 22.79 50.71 50.71 50.71z" fill="#0593fc" fill-rule="evenodd"/><path clip-rule="evenodd" d="m256.01 145.05c39.94 0 72.51-32.57 72.51-72.51 0-39.97-32.57-72.54-72.51-72.54-39.97 0-72.54 32.57-72.54 72.54.01 39.94 32.58 72.51 72.54 72.51z" fill="#70da40" fill-rule="evenodd"/><path d="m284.45 46.6c3.23-3.23 8.48-3.23 11.68 0 3.23 3.23 3.23 8.45 0 11.68l-40.17 40.17c-3.23 3.23-8.45 3.23-11.68 0l-28.4-28.4c-3.23-3.2-3.23-8.45 0-11.68 3.23-3.2 8.45-3.2 11.68 0l22.56 22.56z" fill="#fff"/><g clip-rule="evenodd" fill-rule="evenodd"><path d="m406.79 92.3 8.84 27.33c.74 2.32 2.81 3.83 5.24 3.83l28.71-.06c2.44 0 4.51 1.5 5.27 3.8.74 2.32-.06 4.73-2.01 6.18l-23.27 16.84c-1.98 1.42-2.78 3.85-2.01 6.18l8.93 27.3c.77 2.32-.03 4.73-2.01 6.18-1.96 1.42-4.51 1.42-6.46 0l-23.22-16.95c-1.98-1.42-4.54-1.42-6.49 0l-23.22 16.95c-1.96 1.42-4.54 1.42-6.49 0-1.96-1.45-2.75-3.85-2.01-6.18l8.93-27.3c.77-2.32-.03-4.76-1.98-6.18l-23.27-16.84c-1.98-1.45-2.78-3.85-2.01-6.18.74-2.3 2.81-3.8 5.24-3.8l28.72.06c2.44 0 4.51-1.5 5.27-3.83l8.82-27.33c.77-2.32 2.81-3.83 5.24-3.83s4.5 1.5 5.24 3.83z" fill="#ffd400"/><path d="m115.7 92.3 8.82 27.33c.77 2.32 2.83 3.83 5.27 3.83l28.72-.06c2.44 0 4.51 1.5 5.27 3.8.74 2.32-.06 4.73-2.01 6.18l-23.27 16.84c-1.98 1.42-2.78 3.85-2.01 6.18l8.93 27.3c.74 2.32-.03 4.73-2.01 6.18-1.96 1.42-4.51 1.42-6.49 0l-23.19-16.95c-1.98-1.42-4.54-1.42-6.52 0l-23.19 16.95c-1.98 1.42-4.54 1.42-6.49 0-1.98-1.45-2.75-3.85-2.01-6.18l8.93-27.3c.77-2.32-.03-4.76-2.01-6.18l-23.27-16.84c-1.96-1.45-2.75-3.85-2.01-6.18.77-2.3 2.83-3.8 5.27-3.8l28.71.06c2.44 0 4.51-1.5 5.27-3.83l8.82-27.33c.74-2.32 2.81-3.83 5.24-3.83s4.49 1.5 5.23 3.83z" fill="#ffd400"/><path d="m136 123.42 22.51-.03h.4l-22.54.06c-.15 0-.26 0-.37-.03zm7.45 66.42-.06.03c-1.96 1.42-4.51 1.42-6.49 0l-23.16-16.92.06-.03c1.96-1.42 4.51-1.42 6.49 0zm-59.41 0-.03.03c-1.98 1.42-4.54 1.42-6.49 0-1.98-1.45-2.75-3.85-2.01-6.18l8.93-27.3c.77-2.32-.03-4.76-2.01-6.18l-23.27-16.84c-1.96-1.45-2.75-3.85-2.01-6.18.77-2.3 2.83-3.8 5.27-3.8h6.18c-2.24.14-4.14 1.62-4.85 3.8-.77 2.32.03 4.73 1.98 6.18l23.3 16.84c1.96 1.42 2.75 3.85 1.98 6.18l-8.93 27.3c-.74 2.29.03 4.7 1.96 6.15zm7.48-66.42c2.27-.14 4.17-1.59 4.88-3.8l8.82-27.33c.74-2.32 2.81-3.83 5.24-3.83 1.22 0 2.38.37 3.29 1.08-.91.65-1.59 1.59-1.96 2.75l-8.82 27.33c-.77 2.32-2.83 3.83-5.27 3.83z" fill="#e6bf00"/><path d="m427.08 123.42 22.51-.03h.4l-22.54.06c-.11 0-.25 0-.37-.03zm7.46 66.42-.06.03c-1.96 1.42-4.51 1.42-6.46 0l-23.19-16.92.06-.03c1.96-1.42 4.54-1.42 6.49 0zm-59.41 0-.03.03c-1.96 1.42-4.54 1.42-6.49 0-1.96-1.45-2.75-3.85-2.01-6.18l8.93-27.3c.77-2.32-.03-4.76-1.98-6.18l-23.27-16.84c-1.98-1.45-2.78-3.85-2.01-6.18.74-2.3 2.81-3.8 5.24-3.8h6.21c-2.27.14-4.17 1.62-4.88 3.8-.77 2.32.03 4.73 2.01 6.18l23.27 16.84c1.96 1.42 2.75 3.85 2.01 6.18l-8.93 27.3c-.77 2.29 0 4.7 1.93 6.15zm7.48-66.42c2.27-.14 4.17-1.59 4.88-3.8l8.82-27.33c.77-2.32 2.81-3.83 5.24-3.83 1.25 0 2.38.37 3.29 1.08-.88.65-1.59 1.59-1.96 2.75l-8.82 27.33c-.74 2.32-2.81 3.83-5.24 3.83z" fill="#e6bf00"/><path d="m256.01 0c1.81 0 3.63.06 5.41.2-37.52 2.78-67.12 34.1-67.12 72.34 0 38.21 29.59 69.56 67.12 72.31-1.79.14-3.6.2-5.41.2-40.08 0-72.54-32.46-72.54-72.51.01-40.08 32.46-72.54 72.54-72.54z" fill="#65c43a"/><path d="m184.78 501.59v-73.22c0-1.93-.45-3.57-1.42-5.24l-73.45-125.74c-8.65-14.77-3.6-33.9 11.14-42.52 6.58-3.85 14.03-4.96 21.03-3.74-3.52.62-6.95 1.84-10.18 3.74-14.77 8.62-19.79 27.75-11.17 42.52l73.45 125.74c.96 1.67 1.42 3.32 1.42 5.24v73.22c0 5.73 4.68 10.4 10.4 10.4h-10.83c-5.71.01-10.39-4.67-10.39-10.4zm43.54-146.29c11.48-2.81 22.22-3.94 33.11-3.37-8.28.43-16.64 1.81-25.48 4.22-2.67.71-5.36.37-7.63-.85zm66.19 0c1.64-.88 3.06-2.21 4.08-3.94l49.83-85.32c6.75-11.54 19.87-17.12 32.34-14.91-8.7 1.53-16.72 6.72-21.51 14.91l-49.8 85.32c-2.41 4.11-7.11 6.04-11.71 4.79-1.08-.31-2.15-.57-3.23-.85z" fill="#0584e3"/><path d="m256.01 223.77c1.81 0 3.63.11 5.41.28-25.46 2.72-45.27 24.24-45.27 50.4s19.81 47.71 45.27 50.43c-1.79.17-3.6.28-5.41.28-28.01 0-50.71-22.71-50.71-50.71 0-27.97 22.71-50.68 50.71-50.68z" fill="#0584e3"/></g></g></svg>